<?xml version="1.0" encoding="UTF-8"?><svg id="Warstwa_1" xmlns="http://www.w3.org/2000/svg" viewBox="0 0 713 308"><defs><style>.cls-1,.cls-2{fill:#3baa35;}.cls-2,.cls-3{fill-rule:evenodd;}.cls-3,.cls-4{fill:#1d1d1b;}</style></defs><path class="cls-2" d="M115.84,58.04c-2.66-2.77-3.61-5.52-3.61-10.41,0-12.37,10.18-19.89,16.13-11.92,8.41,11.26-3.24,32.02-12.52,22.33h0Zm-17.39,8.77c-28.68-8.95-52.93-28.25-65.93-52.49-3.06-5.71-3.08-5.68,1.32-2.49,8.88,6.43,18.86,11.59,32.1,16.59,15.96,6.03,17.84,6.78,21.49,8.59,12.34,6.12,19.29,16.37,19.29,28.44q0,3.94-8.27,1.36h0Zm35.82,1.12c0-4.64,2.91-11.25,6.91-15.7,5.89-6.55,10.91-8.67,32.76-13.85,11-2.61,19.73-5.67,28.24-9.92,8.38-4.18,8.31-4.25,3.12,2.8-14.15,19.2-37.55,33.13-64.24,38.24-6.68,1.28-6.79,1.25-6.79-1.57Zm-17.16,47.3c-.19-.3-.53-1.67-.76-3.03-1.33-8.1-7.61-18.42-13.46-22.14-2.98-1.9-3.38-1.9-8.45-.2-23.93,8.03-49.01-10.46-60.14-44.34-4.86-14.79-7.71-42.19-3.14-30.16,9.45,24.85,26.26,42.77,55.17,58.82,21.02,11.67,28.29,19.21,30.63,31.8,.8,4.3,.9,10.43,.15,9.25Zm1.35,.65c1.24-18.82,8.46-26.32,39.5-41.06,24.78-11.76,37.61-22.76,49.42-42.36,3.99-6.62,4.39-5.28,1.78,5.9-9.42,40.3-41.74,65.48-66.71,51.97-5.65-3.06-17.42,11.04-22.52,26.97-1.59,4.97-1.88,4.69-1.48-1.42Z"/><path class="cls-2" d="M167.16,299.93c15.32-5.01,28.97-21.83,40.52-49.94,4.69-11.41,3.83-11.39-3.85,.09-23.02,34.42-38.83,42.41-68.34,34.56-14.51-3.86-21.38-3.89-35.51-.18-31.66,8.33-41.05,2.3-58.97-37.83C2.46,160.31,27.38,108.77,94.75,135.51c22.87,9.08,22.13,9.08,46.64-.45,25.69-10,46.28-10.97,66.2-3.12,6.33,2.49,6.48,1.37,.54-4.17-17-15.86-40.65-17.76-71.25-5.74-16.48,6.48-19.02,7.24-21.51,6.49-1.15-.35-8.35-3.05-15.98-6.01C20.2,91.87-14.65,153.25,27.11,249.83c20.18,46.68,38.12,58,75.8,47.85,13.53-3.65,15.44-3.65,29.04-.06,12.95,3.42,28.64,4.45,35.21,2.3h0Z"/><path class="cls-1" d="M129.84,213.51v-43.64h12.81c2.76,0,5.32,.49,7.68,1.48,2.36,.99,4.43,2.46,6.21,4.33,1.77,1.87,3.15,4.24,4.14,6.99,.99,2.76,1.48,5.91,1.48,9.46s-.49,6.5-1.48,9.16c-.99,2.66-2.36,4.93-4.04,6.8-1.67,1.87-3.74,3.25-6.11,4.24-2.36,.99-4.93,1.48-7.68,1.48l.2-.3h-13.2Zm-13.59-55.95v68.86h26.01c4.83,0,9.26-.69,13.4-2.27,4.14-1.58,7.68-3.84,10.64-6.8,2.96-2.96,5.32-6.5,6.99-10.74,1.67-4.24,2.46-8.96,2.46-14.19s-.89-9.95-2.56-14.19c-1.67-4.24-4.04-7.88-7.09-10.93-3.05-3.05-6.6-5.42-10.74-7.09-4.14-1.67-8.67-2.46-13.59-2.46l.1-.2h-25.61Z"/><rect class="cls-1" x="196.57" y="157.26" width="13.4" height="68.96"/><polygon class="cls-1" points="248.03 213.51 248.03 196.76 272.56 196.76 272.56 184.75 248.03 184.75 248.03 169.97 279.45 169.97 279.45 157.26 234.63 157.26 234.63 226.22 280.04 226.22 280.04 213.51 248.03 213.51"/><polygon class="cls-1" points="296.73 157.26 296.73 169.97 316.33 169.97 316.33 226.22 329.73 226.22 329.73 169.97 349.62 169.97 349.62 157.26 296.73 157.26"/><polygon class="cls-1" points="381.38 213.51 381.38 196.76 405.91 196.76 405.91 184.75 381.38 184.75 381.38 169.97 412.8 169.97 412.8 157.26 367.98 157.26 367.98 226.22 413.39 226.22 413.39 213.51 381.38 213.51"/><polygon class="cls-1" points="430.08 157.26 430.08 169.97 449.68 169.97 449.68 226.22 463.08 226.22 463.08 169.97 482.98 169.97 482.98 157.26 430.08 157.26"/><path class="cls-1" d="M542.41,157.26l-12.81,20c-1.08,1.77-1.97,3.25-2.56,4.53s-.98,1.87-1.08,1.87h-.1c-.1,0-.49-.59-1.18-1.87-.69-1.28-1.58-2.76-2.66-4.53l-12.81-20h-14.68l24.43,38.42v30.54h13.4v-30.54l24.73-38.42h-14.68Z"/><path class="cls-1" d="M631.99,226.22l-28.07-40.09,27.19-28.86h-16.35l-17.24,18.42c-2.96,3.15-5.22,5.61-6.7,7.39-1.48,1.77-2.27,2.66-2.36,2.66h-.1c-.1,0-.1-1.18,0-3.64,.1-2.46,.1-6.21,.1-11.23v-13.59h-13.4v68.96h13.4v-23.94l6.4-6.8,21.38,30.73h15.76Z"/><path class="cls-1" d="M667,200.9l6.4-18.72c.39-1.18,.79-2.36,1.08-3.55l.89-3.05c.3-.89,.49-1.58,.69-2.17l.2-.79h.1l.3,.89c.2,.59,.39,1.38,.69,2.27l.89,3.15c.3,1.18,.69,2.36,1.08,3.55l6.4,18.42h-18.72Zm27.39,25.51h14.19l-25.42-68.86h-13.69l-25.42,68.86h14.28l4.53-13.1h26.99l4.53,13.1Z"/><path class="cls-4" d="M245.93,245.13h-10.31v2.53h7.08l.02,.02-.12,.12-.29,.29c-.12,.12-.24,.24-.37,.37s-.25,.27-.35,.41l-6.17,7.55v2.49h10.51v-2.51h-5.06c-.57,0-1.04,.02-1.41,.04-.37,.02-.57,.04-.59,.04l-.04-.02s.12-.16,.35-.41c.24-.25,.49-.55,.76-.88l6-7.53v-2.51Zm-5.14-1.22c.33,0,.63-.12,.86-.37,.24-.25,.35-.55,.35-.9s-.12-.65-.35-.9c-.24-.25-.53-.37-.86-.37s-.63,.12-.86,.37c-.24,.25-.35,.55-.35,.9s.12,.65,.35,.9c.24,.25,.53,.37,.86,.37Z"/><path class="cls-4" d="M258.58,245.13l-2.55,3.98c-.22,.35-.39,.65-.51,.9-.12,.25-.2,.37-.22,.37h-.02s-.1-.12-.24-.37c-.14-.25-.31-.55-.53-.9l-2.55-3.98h-2.92l4.86,7.65v6.08h2.67v-6.08l4.92-7.65h-2.92Z"/><path class="cls-4" d="M279.23,245.13l-1.86,7.41c-.08,.33-.16,.65-.22,.94-.06,.29-.12,.55-.16,.76-.04,.22-.08,.39-.1,.53l-.04,.2h-.02l-.06-.2c-.04-.14-.08-.31-.14-.53-.06-.22-.12-.47-.2-.76-.08-.29-.18-.61-.27-.94l-1.9-6.1h-2.47l-1.9,6.1c-.1,.33-.2,.65-.27,.94-.08,.29-.14,.55-.2,.76-.06,.22-.1,.39-.14,.53l-.06,.2h-.02l-.04-.2c-.02-.14-.06-.31-.1-.53-.04-.22-.1-.47-.16-.76-.06-.29-.14-.61-.22-.94l-1.86-7.41h-2.86l3.84,13.72h2.59l1.96-6.65c.24-.78,.37-1.41,.45-1.86,.08-.45,.12-.69,.14-.69h.04s.06,.24,.14,.69c.08,.45,.22,1.08,.45,1.86l1.98,6.65h2.59l3.94-13.72h-2.86Z"/><rect class="cls-4" x="285.94" y="245.13" width="2.67" height="13.72"/><polygon class="cls-4" points="296.18 256.33 296.18 253 301.06 253 301.06 250.6 296.18 250.6 296.18 247.66 302.43 247.66 302.43 245.13 293.51 245.13 293.51 258.86 302.55 258.86 302.55 256.33 296.18 256.33"/><path class="cls-4" d="M315.46,245.13v4.49c0,.58,0,1.15,.02,1.7,.02,.55,.04,1.02,.06,1.43,.02,.41,.02,.74,.02,.98v.37h-.04l-.24-.33c-.16-.24-.35-.51-.57-.84-.22-.33-.45-.69-.71-1.08-.25-.39-.51-.73-.71-1.02l-3.76-5.66h-2.43v13.68l2.65,.02v-4.41c0-.67,0-1.27-.02-1.84-.02-.57-.04-1.06-.04-1.47s.02-.73,0-.96l-.02-.33h.02l.22,.33c.14,.22,.31,.49,.55,.82,.24,.33,.49,.71,.76,1.12,.27,.41,.55,.8,.8,1.18l3.65,5.55h2.43l.02-13.72h-2.67Z"/><rect class="cls-4" x="323.03" y="245.13" width="2.67" height="13.72"/><polygon class="cls-4" points="333.27 256.33 333.27 253 338.15 253 338.15 250.6 333.27 250.6 333.27 247.66 339.52 247.66 339.52 245.13 330.6 245.13 330.6 258.86 339.64 258.86 339.64 256.33 333.27 256.33"/><path class="cls-4" d="M360.09,248.49c-.53-1.14-1.29-2.02-2.27-2.67-.98-.65-2.12-.96-3.39-.96-.92,0-1.78,.18-2.57,.51-.78,.33-1.47,.82-2.04,1.45-.57,.63-1.02,1.37-1.33,2.25-.31,.88-.47,1.86-.47,2.94s.16,2.06,.47,2.94c.31,.88,.76,1.63,1.33,2.25,.57,.63,1.25,1.12,2.04,1.45,.78,.31,1.65,.49,2.57,.49,1.35,0,2.55-.33,3.59-1.04,1.04-.71,1.8-1.69,2.29-2.96l-2.65-.69c-.29,.67-.73,1.18-1.29,1.53-.57,.35-1.22,.53-1.92,.53-.53,0-1.02-.1-1.47-.29-.45-.2-.84-.49-1.18-.88-.33-.39-.59-.86-.76-1.41-.18-.55-.27-1.18-.27-1.88,0-1.39,.33-2.49,.98-3.29,.65-.8,1.55-1.2,2.69-1.2,.61,0,1.18,.14,1.72,.41,.55,.27,.98,.71,1.29,1.27l-.02-.06,2.67-.71Z"/><path class="cls-4" d="M374.25,245.13h-10.31v2.53h7.08l.02,.02-.12,.12-.29,.29c-.12,.12-.24,.24-.37,.37-.14,.14-.25,.27-.35,.41l-6.18,7.55v2.49h10.51v-2.51h-5.06c-.57,0-1.04,.02-1.41,.04-.37,.02-.57,.04-.59,.04l-.04-.02s.12-.16,.35-.41,.49-.55,.76-.88l6-7.53v-2.51Z"/><polygon class="cls-4" points="381.39 256.33 381.39 253.15 385.98 250.8 385.98 248.25 381.39 250.6 381.39 245.13 378.73 245.13 378.73 258.86 387.57 258.86 387.57 256.33 381.39 256.33"/><path class="cls-4" d="M393.3,252c0-1.43,.33-2.53,1-3.31,.67-.78,1.55-1.18,2.67-1.18s2,.39,2.67,1.18c.67,.78,1,1.9,1,3.33,0,.71-.1,1.33-.27,1.88-.18,.55-.43,1.02-.74,1.41-.31,.39-.71,.69-1.16,.9-.45,.22-.96,.31-1.51,.31s-1.06-.1-1.51-.29c-.45-.2-.84-.49-1.16-.88-.31-.39-.57-.86-.74-1.41-.18-.55-.27-1.18-.27-1.88l.04-.06Zm-2.8,.06c0,1.08,.16,2.06,.47,2.94,.31,.88,.76,1.63,1.33,2.25,.57,.63,1.25,1.12,2.04,1.45,.78,.31,1.65,.49,2.57,.49s1.76-.18,2.55-.49c.78-.33,1.47-.8,2.04-1.43,.57-.63,1.02-1.37,1.35-2.25,.33-.88,.49-1.86,.49-2.94s-.16-2.06-.49-2.94c-.33-.88-.78-1.63-1.35-2.25-.57-.63-1.25-1.1-2.04-1.43-.78-.33-1.65-.51-2.57-.51s-1.78,.18-2.57,.51c-.78,.33-1.47,.82-2.04,1.45-.57,.63-1.02,1.37-1.33,2.25-.31,.88-.47,1.86-.47,2.94l.02-.04Z"/><path class="cls-4" d="M421.59,245.13l-1.86,7.41c-.08,.33-.16,.65-.22,.94-.06,.29-.12,.55-.16,.76-.04,.22-.08,.39-.1,.53l-.04,.2h-.02l-.06-.2c-.04-.14-.08-.31-.14-.53-.06-.22-.12-.47-.2-.76-.08-.29-.18-.61-.27-.94l-1.9-6.1h-2.47l-1.9,6.1c-.1,.33-.2,.65-.27,.94-.08,.29-.14,.55-.2,.76-.06,.22-.1,.39-.14,.53l-.06,.2h-.02l-.04-.2c-.02-.14-.06-.31-.1-.53-.04-.22-.1-.47-.16-.76-.06-.29-.14-.61-.22-.94l-1.86-7.41h-2.86l3.84,13.72h2.59l1.96-6.65c.24-.78,.37-1.41,.45-1.86,.08-.45,.12-.69,.14-.69h.04s.06,.24,.14,.69c.08,.45,.22,1.08,.45,1.86l1.98,6.65h2.59l3.94-13.72h-2.86Z"/><rect class="cls-4" x="428.3" y="245.13" width="2.67" height="13.72"/><polygon class="cls-4" points="438.54 256.33 438.54 253 443.42 253 443.42 250.6 438.54 250.6 438.54 247.66 444.8 247.66 444.8 245.13 435.88 245.13 435.88 258.86 444.91 258.86 444.91 256.33 438.54 256.33"/><path class="cls-4" d="M460.78,258.86l-5.59-7.98,5.41-5.74h-3.25l-3.43,3.67c-.59,.63-1.04,1.12-1.33,1.47-.29,.35-.45,.53-.47,.53h-.02s-.02-.24,0-.73c.02-.49,.02-1.23,.02-2.23v-2.71h-2.67v13.72h2.67v-4.76l1.27-1.35,4.25,6.12h3.14Z"/><path class="cls-4" d="M467.75,253.82l1.27-3.72c.08-.24,.16-.47,.22-.71l.18-.61c.06-.18,.1-.31,.14-.43l.04-.16h.02l.06,.18c.04,.12,.08,.27,.14,.45l.18,.63c.06,.24,.14,.47,.22,.71l1.27,3.67h-3.72Zm5.45,5.08h2.82l-5.06-13.7h-2.72l-5.06,13.7h2.84l.9-2.61h5.37l.9,2.61Z"/><path class="cls-4" d="M505.27,251.8v-4.14h1.8c.73,0,1.29,.17,1.71,.53,.41,.35,.61,.86,.61,1.52s-.2,1.15-.61,1.52c-.41,.37-.98,.55-1.71,.55v.02h-1.8Zm-2.67-6.66v13.72h2.67v-4.57h1.84c.76,0,1.45-.1,2.08-.31,.63-.22,1.16-.51,1.59-.9,.43-.39,.76-.86,1-1.43,.23-.57,.35-1.21,.35-1.93s-.12-1.37-.35-1.93c-.24-.57-.57-1.04-1-1.43-.43-.39-.96-.69-1.59-.9-.63-.22-1.33-.31-2.12-.31h-4.47Z"/><path class="cls-4" d="M525.04,248.53c-.14-.53-.35-1.02-.65-1.47-.29-.45-.67-.84-1.1-1.16-.43-.31-.92-.57-1.45-.75-.53-.18-1.1-.27-1.71-.27-.71,0-1.35,.12-1.94,.33-.59,.22-1.08,.51-1.49,.86-.41,.35-.73,.76-.96,1.22-.24,.45-.35,.92-.35,1.41,0,.57,.1,1.06,.31,1.47,.22,.41,.49,.78,.82,1.1,.33,.31,.71,.59,1.14,.8,.43,.22,.84,.43,1.25,.63,.45,.2,.88,.37,1.29,.53,.41,.16,.76,.33,1.08,.51,.31,.18,.57,.37,.76,.59,.2,.22,.29,.49,.29,.82,0,.45-.18,.82-.53,1.12-.35,.29-.84,.45-1.49,.45-.39,0-.74-.06-1.06-.18-.31-.12-.59-.29-.82-.51-.24-.22-.43-.47-.59-.76-.16-.29-.27-.59-.33-.9l-2.55,.69c.16,.61,.39,1.16,.71,1.65,.31,.49,.69,.92,1.14,1.27,.45,.35,.96,.63,1.55,.82,.59,.18,1.24,.27,1.94,.27s1.39-.1,2-.29c.61-.22,1.12-.51,1.55-.88,.43-.37,.76-.8,1-1.31,.24-.51,.35-1.06,.35-1.65s-.12-1.1-.35-1.53c-.24-.43-.55-.82-.92-1.16-.37-.33-.8-.63-1.27-.86-.47-.24-.94-.45-1.39-.65-.41-.18-.8-.33-1.18-.49s-.71-.31-.98-.47c-.27-.16-.49-.33-.65-.53-.16-.2-.24-.43-.24-.69,0-.41,.16-.74,.49-1,.33-.25,.78-.39,1.35-.39s1.08,.18,1.55,.51c.47,.33,.78,.84,.96,1.51l-.08,.02,2.53-.69Z"/><path class="cls-4" d="M537.26,245.13l-2.55,3.98c-.22,.35-.39,.65-.51,.9-.12,.25-.2,.37-.22,.37h-.02s-.1-.12-.24-.37c-.14-.25-.31-.55-.53-.9l-2.55-3.98h-2.92l4.86,7.65v6.08h2.67v-6.08l4.92-7.65h-2.92Z"/><path class="cls-4" d="M555.06,248.49c-.53-1.14-1.29-2.02-2.27-2.67-.98-.65-2.12-.96-3.39-.96-.92,0-1.78,.18-2.57,.51-.78,.33-1.47,.82-2.04,1.45-.57,.63-1.02,1.37-1.33,2.25-.31,.88-.47,1.86-.47,2.94s.16,2.06,.47,2.94c.31,.88,.76,1.63,1.33,2.25,.57,.63,1.25,1.12,2.04,1.45,.78,.31,1.65,.49,2.57,.49,1.35,0,2.55-.33,3.59-1.04,1.04-.71,1.8-1.69,2.29-2.96l-2.65-.69c-.29,.67-.73,1.18-1.29,1.53-.57,.35-1.22,.53-1.92,.53-.53,0-1.02-.1-1.47-.29-.45-.2-.84-.49-1.18-.88-.33-.39-.59-.86-.76-1.41-.18-.55-.27-1.18-.27-1.88,0-1.39,.33-2.49,.98-3.29,.65-.8,1.55-1.2,2.69-1.2,.61,0,1.18,.14,1.72,.41,.55,.27,.98,.71,1.29,1.27l-.02-.06,2.67-.71Z"/><polygon class="cls-4" points="567.05 245.13 567.05 250.6 561.81 250.6 561.81 245.13 559.15 245.13 559.15 258.86 561.81 258.86 561.81 253.19 567.05 253.19 567.05 258.86 569.73 258.86 569.73 245.13 567.05 245.13"/><path class="cls-4" d="M576.56,252c0-1.43,.33-2.53,1-3.31,.67-.78,1.55-1.18,2.67-1.18s2,.39,2.67,1.18c.67,.78,1,1.9,1,3.33,0,.71-.1,1.33-.27,1.88-.18,.55-.43,1.02-.74,1.41-.31,.39-.71,.69-1.16,.9-.45,.22-.96,.31-1.51,.31s-1.06-.1-1.51-.29c-.45-.2-.84-.49-1.16-.88-.31-.39-.57-.86-.74-1.41-.18-.55-.27-1.18-.27-1.88l.04-.06Zm-2.8,.06c0,1.08,.16,2.06,.47,2.94,.31,.88,.76,1.63,1.33,2.25,.57,.63,1.25,1.12,2.04,1.45,.78,.31,1.65,.49,2.57,.49s1.76-.18,2.55-.49c.78-.33,1.47-.8,2.04-1.43,.57-.63,1.02-1.37,1.35-2.25,.33-.88,.49-1.86,.49-2.94s-.16-2.06-.49-2.94c-.33-.88-.78-1.63-1.35-2.25-.57-.63-1.25-1.1-2.04-1.43-.78-.33-1.65-.51-2.57-.51s-1.78,.18-2.57,.51c-.78,.33-1.47,.82-2.04,1.45-.57,.63-1.02,1.37-1.33,2.25-.31,.88-.47,1.86-.47,2.94l.02-.04Z"/><path class="cls-4" d="M593.41,256.33v-8.68h2.55c.55,0,1.06,.1,1.53,.29,.47,.2,.88,.49,1.23,.86,.35,.37,.63,.84,.82,1.39,.2,.55,.29,1.18,.29,1.88s-.1,1.29-.29,1.82c-.2,.53-.47,.98-.8,1.35-.33,.37-.74,.65-1.22,.84-.47,.2-.98,.29-1.53,.29l.04-.06h-2.63Zm-2.71-11.13v13.7h5.17c.96,0,1.84-.14,2.67-.45,.82-.31,1.53-.76,2.12-1.35,.59-.59,1.06-1.29,1.39-2.14,.33-.84,.49-1.78,.49-2.82s-.18-1.98-.51-2.82c-.33-.84-.8-1.57-1.41-2.18-.61-.61-1.31-1.08-2.14-1.41-.82-.33-1.72-.49-2.71-.49l.02-.04h-5.1Z"/><rect class="cls-4" x="606.68" y="245.13" width="2.67" height="13.72"/><polygon class="cls-4" points="616.92 256.33 616.92 253 621.8 253 621.8 250.6 616.92 250.6 616.92 247.66 623.18 247.66 623.18 245.13 614.26 245.13 614.26 258.86 623.29 258.86 623.29 256.33 616.92 256.33"/><polygon class="cls-4" points="626.61 245.13 626.61 247.66 630.52 247.66 630.52 258.86 633.18 258.86 633.18 247.66 637.14 247.66 637.14 245.13 626.61 245.13"/><polygon class="cls-4" points="643.46 256.33 643.46 253 648.34 253 648.34 250.6 643.46 250.6 643.46 247.66 649.71 247.66 649.71 245.13 640.79 245.13 640.79 258.86 649.83 258.86 649.83 256.33 643.46 256.33"/><polygon class="cls-4" points="653.15 245.13 653.15 247.66 657.05 247.66 657.05 258.86 659.72 258.86 659.72 247.66 663.68 247.66 663.68 245.13 653.15 245.13"/><path class="cls-4" d="M675.5,245.13l-2.55,3.98c-.22,.35-.39,.65-.51,.9-.12,.25-.2,.37-.22,.37h-.02s-.1-.12-.24-.37c-.14-.25-.31-.55-.53-.9l-2.55-3.98h-2.92l4.86,7.65v6.08h2.67v-6.08l4.92-7.65h-2.92Z"/><path class="cls-4" d="M693.33,258.86l-5.59-7.98,5.41-5.74h-3.25l-3.43,3.67c-.59,.63-1.04,1.12-1.33,1.47-.29,.35-.45,.53-.47,.53h-.02s-.02-.24,0-.73c.02-.49,.02-1.23,.02-2.23v-2.71h-2.67v13.72h2.67v-4.76l1.27-1.35,4.25,6.12h3.14Z"/><path class="cls-4" d="M700.3,253.82l1.27-3.72c.08-.24,.16-.47,.22-.71l.18-.61c.06-.18,.1-.31,.14-.43l.04-.16h.02l.06,.18c.04,.12,.08,.27,.14,.45l.18,.63c.06,.24,.14,.47,.22,.71l1.27,3.67h-3.72Zm5.45,5.08h2.82l-5.06-13.7h-2.72l-5.06,13.7h2.84l.9-2.61h5.37l.9,2.61Z"/><path class="cls-3" d="M488.26,249.33c1.22,0,2.2,.99,2.2,2.2s-.99,2.2-2.2,2.2-2.2-.99-2.2-2.2,.99-2.2,2.2-2.2"/><path class="cls-4" d="M260.94,111.61l-8.15,14.02c-.7,1.21-1.28,2.18-1.72,2.97-.44,.79-.79,1.41-1.06,1.89-.26,.48-.44,.84-.53,1.01l-.13,.31h-.04l-.18-.26c-.09-.18-.26-.48-.48-.97-.22-.48-.57-1.1-1.01-1.89-.44-.79-1.01-1.76-1.72-2.95l-8.15-14.05h-2.38v30.78h2.51v-15.59c0-1.01,0-2.16-.04-3.43-.04-1.28-.09-2.47-.09-3.57s.04-2.03,0-2.77l-.04-1.1h.04l.22,.44c.18,.26,.4,.62,.66,1.06,.26,.44,.53,.92,.84,1.5,.31,.57,.62,1.14,.92,1.72l8.19,14.22h1.37l8.19-14.22c.31-.57,.62-1.14,.92-1.72,.31-.57,.57-1.06,.84-1.5,.26-.44,.48-.79,.66-1.06l.22-.4h.04l-.04,1.14c-.04,.75,0,1.67,0,2.77s-.04,2.29-.09,3.57c-.04,1.28-.04,2.42-.04,3.43v15.59h2.51l.13-30.95h-2.38Z"/><path class="cls-4" d="M272.26,127.02c0-2.03,.35-3.87,1.06-5.55,.7-1.67,1.63-3.08,2.82-4.27,1.19-1.19,2.6-2.11,4.23-2.77,1.63-.66,3.39-.97,5.28-.97s3.65,.35,5.28,1.01c1.63,.66,3.04,1.59,4.23,2.77,1.19,1.19,2.16,2.6,2.86,4.27,.7,1.67,1.06,3.52,1.06,5.55s-.35,3.83-1.06,5.5c-.7,1.67-1.67,3.13-2.86,4.31-1.19,1.19-2.6,2.11-4.23,2.77-1.63,.66-3.39,1.01-5.28,1.01s-3.65-.31-5.28-.97c-1.63-.66-3.04-1.59-4.23-2.77-1.19-1.19-2.16-2.6-2.86-4.27-.7-1.67-1.06-3.52-1.06-5.5l.04-.13Zm-2.64,.13c0,2.33,.4,4.49,1.23,6.47,.84,1.98,1.98,3.7,3.43,5.11,1.45,1.41,3.13,2.51,5.06,3.3,1.94,.75,4.01,1.14,6.21,1.14s4.27-.4,6.21-1.14c1.94-.79,3.65-1.89,5.11-3.3,1.45-1.41,2.6-3.08,3.43-5.06,.84-1.98,1.23-4.14,1.23-6.47s-.44-4.49-1.28-6.47c-.84-1.98-1.98-3.65-3.43-5.06-1.45-1.41-3.17-2.51-5.11-3.3-1.94-.79-4.01-1.19-6.21-1.19s-4.27,.4-6.21,1.19c-1.94,.79-3.65,1.89-5.11,3.3-1.45,1.41-2.6,3.13-3.43,5.11-.84,1.98-1.28,4.14-1.28,6.47l.13-.09Z"/><path class="cls-4" d="M330.03,111.61v21.69c0,.97,0,1.81,.04,2.51,.04,.71,.04,1.28,.04,1.72v.66h-.04s-.44-.48-1.14-1.5c-.7-1.02-1.67-2.34-2.91-3.97l-15.67-21.12h-2.38v30.82h2.51v-26.64h.04s.4,.48,1.06,1.45c.66,.97,1.63,2.38,2.95,4.18l15.72,21.13h2.38l-.04-30.95h-2.55Z"/><rect class="cls-4" x="341.16" y="111.61" width="2.51" height="30.82"/><path class="cls-4" d="M375.86,142.38l-13.61-18.33,12.46-12.45h-3.17l-11.27,11.27c-.53,.53-1.1,1.1-1.72,1.76-.62,.66-1.23,1.28-1.81,1.85l-1.41,1.41-.57,.57h-.04s-.04-.66,0-1.98c.04-1.32,.04-3.21,.04-5.64v-9.16h-2.51v30.78h2.51v-10.88l5.68-5.68,12.42,16.51,2.99-.04Z"/><path class="cls-4" d="M386.52,131.2l5.68-12.99c.18-.4,.35-.79,.53-1.23,.18-.44,.31-.84,.44-1.19,.13-.35,.22-.62,.31-.84l.13-.31h.04l.13,.35c.09,.22,.18,.53,.31,.88,.13,.35,.26,.75,.44,1.19,.18,.44,.35,.84,.53,1.23l5.68,12.9h-14.22Zm19.15,11.23h2.77l-13.69-30.73h-2.25l-13.69,30.73h2.77l3.92-8.89h16.25l3.92,8.89Z"/><polygon class="cls-4" points="427.29 140.01 427.29 129.88 439.97 123.45 439.97 120.99 427.29 127.41 427.29 111.61 424.78 111.61 424.78 142.43 444.37 142.43 444.37 140.01 427.29 140.01"/><path class="cls-4" d="M453.97,131.2l5.68-12.99c.18-.4,.35-.79,.53-1.23,.18-.44,.31-.84,.44-1.19,.13-.35,.22-.62,.31-.84l.13-.31h.04l.13,.35c.09,.22,.18,.53,.31,.88,.13,.35,.26,.75,.44,1.19,.18,.44,.35,.84,.53,1.23l5.68,12.9h-14.22Zm19.15,11.23h2.77l-13.69-30.73h-2.25l-13.69,30.73h2.77l3.92-8.89h16.25l3.92,8.89Z"/><path class="cls-4" d="M504.39,111.61h-24.39v2.42h17.52c1.19,0,2.11,0,2.77-.04,.66-.04,1.01-.04,1.06-.04l.04,.04-.22,.22-.57,.57c-.22,.22-.44,.48-.7,.75-.26,.26-.48,.53-.7,.79l-19.59,23.82v2.29h24.83v-2.38h-17.79c-1.06,0-1.94,.04-2.64,.09s-1.06,.09-1.1,.09l-.04-.04s.22-.26,.62-.66,.92-.97,1.54-1.72l19.37-23.86v-2.33Z"/><path class="cls-4" d="M515.75,131.2l5.68-12.99c.18-.4,.35-.79,.53-1.23,.18-.44,.31-.84,.44-1.19,.13-.35,.22-.62,.31-.84l.13-.31h.04l.13,.35c.09,.22,.18,.53,.31,.88,.13,.35,.26,.75,.44,1.19,.18,.44,.35,.84,.53,1.23l5.68,12.9h-14.22Zm19.15,11.23h2.77l-13.69-30.73h-2.25l-13.69,30.73h2.77l3.92-8.89h16.25l3.92,8.89Z"/><path class="cls-4" d="M561.27,111.61v18.49c0,3.3-.84,5.9-2.51,7.79-1.67,1.89-4.18,2.82-7.53,2.82-2.2,0-4.14-.53-5.81-1.63-1.67-1.1-2.86-2.64-3.52-4.62l-2.55,.66c.4,1.19,.97,2.29,1.72,3.26,.75,.97,1.63,1.81,2.64,2.51,1.01,.7,2.16,1.28,3.43,1.63,1.28,.4,2.64,.62,4.09,.62,2.07,0,3.87-.31,5.46-.88,1.59-.62,2.91-1.5,3.96-2.64,1.06-1.14,1.85-2.51,2.38-4.14,.53-1.63,.79-3.43,.79-5.46l.04-18.4h-2.6Z"/></svg>