<svg width="235" height="337" viewBox="0 0 235 337" fill="none" xmlns="http://www.w3.org/2000/svg">
<path d="M126.048 122.446C127.475 100.751 135.818 92.0935 171.669 75.1046C200.283 61.5448 215.1 48.865 228.744 26.2601C233.351 18.6288 233.815 20.1682 230.796 33.0678C219.923 79.5324 182.594 108.568 153.759 92.9895C147.238 89.4666 133.645 105.719 127.752 124.084C125.914 129.813 125.584 129.496 126.048 122.446ZM124.492 121.701C124.27 121.352 123.876 119.779 123.616 118.207C122.075 108.865 114.83 96.9712 108.066 92.6808C104.621 90.4952 104.166 90.4844 98.3027 92.4495C70.6703 101.711 41.7054 80.3923 28.8445 41.3276C23.2313 24.2772 19.9399 -7.31595 25.2215 6.5506C36.1369 35.2084 55.5469 55.8664 88.9406 74.3666C113.221 87.8182 121.611 96.5145 124.314 111.034C125.237 115.988 125.354 123.058 124.492 121.701ZM144.305 67.1593C144.305 61.8079 147.666 54.1877 152.291 49.0514C159.096 41.4947 164.887 39.0499 190.124 33.0798C202.822 30.0759 212.914 26.5365 222.732 21.6446C232.411 16.822 232.33 16.7493 226.333 24.8775C209.997 47.0176 182.973 63.0783 152.145 68.9681C144.428 70.4423 144.305 70.4138 144.305 67.1593ZM102.941 65.8728C69.8224 55.5536 41.8193 33.2959 26.8023 5.35555C23.2648 -1.22626 23.2449 -1.18889 28.3262 2.485C38.5791 9.89809 50.1067 15.8455 65.3948 21.6099C83.8305 28.5611 85.9957 29.4252 90.2133 31.5152C104.461 38.5755 112.486 50.3895 112.486 64.3024C112.486 68.8419 112.475 68.8437 102.941 65.8728ZM123.019 55.7598C119.951 52.5628 118.85 49.3918 118.85 43.7518C118.85 29.4921 130.605 20.8212 137.481 30.0094C147.192 42.9875 133.743 66.9345 123.019 55.7598Z" fill="#E2EAE3"/>
<path d="M182.282 334.659C199.972 328.885 215.735 309.49 229.078 277.08C234.495 263.923 233.498 263.947 224.629 277.186C198.043 316.872 179.79 326.088 145.702 317.037C128.948 312.589 121.007 312.55 104.688 316.836C68.1294 326.435 57.2853 319.489 36.5908 273.215C-7.92616 173.674 20.8608 114.244 98.6589 145.076C125.069 155.543 124.222 155.551 152.516 144.562C182.19 133.037 205.966 131.917 228.967 140.959C236.281 143.835 236.45 142.538 229.592 136.152C209.954 117.867 182.642 115.67 147.305 129.534C128.275 137.001 125.339 137.886 122.464 137.02C121.132 136.619 112.825 133.502 104.005 130.093C12.5608 94.7565 -27.679 165.536 20.5428 276.899C43.8492 330.722 64.5648 343.777 108.086 332.07C123.714 327.865 125.918 327.861 141.62 332.005C156.58 335.953 174.694 337.135 182.282 334.659Z" fill="#E2EAE3"/>
</svg>
