<?xml version="1.0" encoding="utf-8"?>
<!-- Generator: Adobe Illustrator 26.5.3, SVG Export Plug-In . SVG Version: 6.00 Build 0)  -->
<svg version="1.1" id="Warstwa_1" xmlns="http://www.w3.org/2000/svg" xmlns:xlink="http://www.w3.org/1999/xlink" x="0px" y="0px"
	 viewBox="0 0 713 308" style="enable-background:new 0 0 713 308;" xml:space="preserve">
<style type="text/css">
	.st0{fill-rule:evenodd;clip-rule:evenodd;fill:#FFFFFF;}
	.st1{fill:#FFFFFF;}
</style>
<path class="st0" d="M115.8,58c-2.7-2.8-3.6-5.5-3.6-10.4c0-12.4,10.2-19.9,16.1-11.9C136.8,47,125.1,67.7,115.8,58L115.8,58z
	 M98.4,66.8c-28.7-9-52.9-28.2-65.9-52.5c-3.1-5.7-3.1-5.7,1.3-2.5c8.9,6.4,18.9,11.6,32.1,16.6c16,6,17.8,6.8,21.5,8.6
	c12.3,6.1,19.3,16.4,19.3,28.4C106.7,68.1,104,68.5,98.4,66.8L98.4,66.8z M134.3,67.9c0-4.6,2.9-11.2,6.9-15.7
	c5.9-6.5,10.9-8.7,32.8-13.9c11-2.6,19.7-5.7,28.2-9.9c8.4-4.2,8.3-4.2,3.1,2.8c-14.1,19.2-37.6,33.1-64.2,38.2
	C134.4,70.8,134.3,70.8,134.3,67.9L134.3,67.9z M117.1,115.2c-0.2-0.3-0.5-1.7-0.8-3c-1.3-8.1-7.6-18.4-13.5-22.1
	c-3-1.9-3.4-1.9-8.4-0.2c-23.9,8-49-10.5-60.1-44.3c-4.9-14.8-7.7-42.2-3.1-30.2c9.5,24.8,26.3,42.8,55.2,58.8
	c21,11.7,28.3,19.2,30.6,31.8C117.8,110.3,117.9,116.4,117.1,115.2z M118.5,115.9c1.2-18.8,8.5-26.3,39.5-41.1
	c24.8-11.8,37.6-22.8,49.4-42.4c4-6.6,4.4-5.3,1.8,5.9c-9.4,40.3-41.7,65.5-66.7,52c-5.6-3.1-17.4,11-22.5,27
	C118.3,122.3,118,122,118.5,115.9L118.5,115.9z"/>
<path class="st0" d="M167.2,299.9c15.3-5,29-21.8,40.5-49.9c4.7-11.4,3.8-11.4-3.9,0.1c-23,34.4-38.8,42.4-68.3,34.6
	c-14.5-3.9-21.4-3.9-35.5-0.2c-31.7,8.3-41,2.3-59-37.8C2.5,160.3,27.4,108.8,94.8,135.5c22.9,9.1,22.1,9.1,46.6-0.4
	c25.7-10,46.3-11,66.2-3.1c6.3,2.5,6.5,1.4,0.5-4.2c-17-15.9-40.7-17.8-71.2-5.7c-16.5,6.5-19,7.2-21.5,6.5c-1.2-0.4-8.3-3.1-16-6
	c-79.2-30.6-114,30.7-72.3,127.3c20.2,46.7,38.1,58,75.8,47.8c13.5-3.6,15.4-3.6,29-0.1C144.9,301,160.6,302.1,167.2,299.9
	L167.2,299.9L167.2,299.9z"/>
<path class="st1" d="M129.8,213.5v-43.6h12.8c2.8,0,5.3,0.5,7.7,1.5c2.4,1,4.4,2.5,6.2,4.3c1.8,1.9,3.1,4.2,4.1,7
	c1,2.8,1.5,5.9,1.5,9.5s-0.5,6.5-1.5,9.2c-1,2.7-2.4,4.9-4,6.8c-1.7,1.9-3.7,3.2-6.1,4.2c-2.4,1-4.9,1.5-7.7,1.5l0.2-0.3
	L129.8,213.5L129.8,213.5z M116.2,157.6v68.9h26c4.8,0,9.3-0.7,13.4-2.3s7.7-3.8,10.6-6.8s5.3-6.5,7-10.7s2.5-9,2.5-14.2
	s-0.9-9.9-2.6-14.2s-4-7.9-7.1-10.9c-3.1-3.1-6.6-5.4-10.7-7.1s-8.7-2.5-13.6-2.5l0.1-0.2L116.2,157.6L116.2,157.6z"/>
<rect x="196.6" y="157.3" class="st1" width="13.4" height="69"/>
<polygon class="st1" points="248,213.5 248,196.8 272.6,196.8 272.6,184.8 248,184.8 248,170 279.5,170 279.5,157.3 234.6,157.3 
	234.6,226.2 280,226.2 280,213.5 "/>
<polygon class="st1" points="296.7,157.3 296.7,170 316.3,170 316.3,226.2 329.7,226.2 329.7,170 349.6,170 349.6,157.3 "/>
<polygon class="st1" points="381.4,213.5 381.4,196.8 405.9,196.8 405.9,184.8 381.4,184.8 381.4,170 412.8,170 412.8,157.3 
	368,157.3 368,226.2 413.4,226.2 413.4,213.5 "/>
<polygon class="st1" points="430.1,157.3 430.1,170 449.7,170 449.7,226.2 463.1,226.2 463.1,170 483,170 483,157.3 "/>
<path class="st1" d="M542.4,157.3l-12.8,20c-1.1,1.8-2,3.2-2.6,4.5s-1,1.9-1.1,1.9h-0.1c-0.1,0-0.5-0.6-1.2-1.9s-1.6-2.8-2.7-4.5
	l-12.8-20h-14.7l24.4,38.4v30.5h13.4v-30.5l24.7-38.4H542.4L542.4,157.3z"/>
<path class="st1" d="M632,226.2l-28.1-40.1l27.2-28.9h-16.3l-17.2,18.4c-3,3.1-5.2,5.6-6.7,7.4c-1.5,1.8-2.3,2.7-2.4,2.7h-0.1
	c-0.1,0-0.1-1.2,0-3.6s0.1-6.2,0.1-11.2v-13.6h-13.4v69h13.4v-23.9l6.4-6.8l21.4,30.7L632,226.2L632,226.2z"/>
<path class="st1" d="M667,200.9l6.4-18.7c0.4-1.2,0.8-2.4,1.1-3.6l0.9-3.1c0.3-0.9,0.5-1.6,0.7-2.2l0.2-0.8h0.1l0.3,0.9
	c0.2,0.6,0.4,1.4,0.7,2.3l0.9,3.1c0.3,1.2,0.7,2.4,1.1,3.6l6.4,18.4H667L667,200.9z M694.4,226.4h14.2l-25.4-68.9h-13.7l-25.4,68.9
	h14.3l4.5-13.1h27L694.4,226.4L694.4,226.4z"/>
<path class="st0" d="M488.3,249.3c1.2,0,2.2,1,2.2,2.2s-1,2.2-2.2,2.2s-2.2-1-2.2-2.2S487,249.3,488.3,249.3"/>
</svg>
