<?xml version="1.0" encoding="UTF-8"?><svg id="Warstwa_1" xmlns="http://www.w3.org/2000/svg" viewBox="0 0 300 300"><defs><style>.cls-1{fill:#fff;}</style></defs><g id="layer1"><path id="path1783" class="cls-1" d="M157.63,110.17c1.25-18.96,8.53-26.53,39.81-41.38,24.97-11.85,37.9-22.93,49.81-42.69,4.02-6.67,4.42-5.32,1.79,5.95-9.49,40.61-42.06,65.99-67.22,52.37-5.69-3.08-17.55,11.13-22.69,27.18-1.6,5.01-1.89,4.73-1.49-1.43h0Zm-1.36-.65c-.19-.31-.54-1.68-.76-3.05-1.34-8.16-7.67-18.56-13.57-22.31-3.01-1.91-3.4-1.92-8.52-.2-24.11,8.09-49.39-10.54-60.61-44.68-4.9-14.9-7.77-42.51-3.16-30.4,9.53,25.05,26.46,43.1,55.6,59.27,21.19,11.76,28.51,19.36,30.87,32.05,.8,4.33,.91,10.51,.15,9.32h0Zm17.29-47.67c0-4.68,2.93-11.34,6.97-15.83,5.94-6.6,10.99-8.74,33.01-13.96,11.08-2.63,19.89-5.72,28.46-9.99,8.45-4.21,8.38-4.28,3.14,2.83-14.25,19.35-37.84,33.39-64.74,38.54-6.73,1.29-6.84,1.26-6.84-1.58h0Zm-36.1-1.12c-28.9-9.02-53.34-28.47-66.44-52.89-3.09-5.75-3.1-5.72,1.33-2.51,8.95,6.48,19.01,11.68,32.35,16.72,16.09,6.08,17.98,6.83,21.66,8.66,12.43,6.17,19.44,16.5,19.44,28.66q0,3.97-8.33,1.37h0Zm17.52-8.84c-2.68-2.79-3.64-5.57-3.64-10.5,0-12.46,10.26-20.04,16.26-12.01,8.47,11.34-3.26,32.27-12.62,22.51Z"/><path id="path1797" class="cls-1" d="M206.71,295.65c15.44-5.05,29.19-22,40.84-50.32,4.73-11.5,3.86-11.48-3.88,.09-23.2,34.69-39.13,42.74-68.87,34.83-14.62-3.89-21.55-3.92-35.79-.18-31.9,8.39-41.36,2.32-59.42-38.12-38.85-87-13.73-138.94,54.16-111.99,23.05,9.15,22.31,9.16,47-.45,25.89-10.07,46.64-11.05,66.71-3.15,6.38,2.51,6.53,1.38,.54-4.2-17.14-15.98-40.97-17.9-71.8-5.78-16.61,6.53-19.17,7.3-21.68,6.54-1.16-.35-8.41-3.08-16.11-6.05-79.8-30.88-114.91,30.98-72.83,128.31,20.34,47.04,38.41,58.45,76.39,48.22,13.64-3.67,15.56-3.68,29.26-.06,13.05,3.45,28.86,4.48,35.48,2.32h0Z"/></g></svg>